<svg width="960" height="223" viewBox="0 0 960 223" fill="none" xmlns="http://www.w3.org/2000/svg">
<path d="M819.752 0.532601C815.552 2.0826 812.052 5.6826 810.902 9.6326C810.602 10.7826 810.352 13.1826 810.402 14.9826C810.452 23.6826 816.952 29.5326 825.752 28.8326C833.252 28.2326 837.552 22.8826 837.552 14.2826C837.552 10.6326 837.202 8.8826 835.952 6.3826C834.902 4.2326 832.002 1.5826 829.702 0.632601C827.752 -0.167399 821.902 -0.217399 819.752 0.532601Z" fill="#E61428"/>
<path d="M0.651852 3.78261C0.301852 3.88261 0.00185185 4.53261 0.00185185 5.18261C0.00185185 5.78261 0.301852 6.53261 0.651852 6.78261C0.951852 7.08261 5.30185 7.43261 10.2519 7.63261C27.1519 8.23261 30.9519 9.78261 32.0019 16.6826C32.3519 19.0826 32.5019 41.2826 32.4019 87.4326C32.2519 153.533 32.2519 154.733 31.2519 156.683C28.9519 161.283 23.3019 162.933 6.75185 163.833C0.351852 164.183 0.251852 164.183 0.101852 165.383C-0.298148 168.033 -1.74815 167.933 47.0519 167.933C75.3519 167.933 92.9019 167.733 93.7019 167.433C95.1019 166.933 95.4519 165.383 94.4019 164.583C94.0519 164.283 89.5019 163.833 84.2519 163.533C70.6519 162.733 67.3519 161.733 65.3519 157.883C64.5519 156.333 64.5019 154.133 64.6019 128.933C64.7519 103.283 64.8019 101.583 65.7019 99.7826C66.5519 98.0326 71.2019 93.5326 81.3519 84.5826L84.8519 81.4826L104.702 117.883C115.602 137.883 124.902 155.183 125.302 156.333C127.352 161.533 124.902 162.783 111.352 163.633C103.102 164.133 101.802 164.283 101.302 165.083C100.852 165.833 100.952 166.183 101.952 166.983C103.102 167.883 104.302 167.933 143.252 167.933C166.602 167.933 183.952 167.733 184.652 167.483C185.302 167.233 186.002 166.683 186.152 166.233C186.802 164.533 185.302 164.083 177.152 163.783C165.902 163.283 162.502 162.083 159.252 157.433C157.852 155.483 107.252 61.3326 106.902 60.0326C106.702 59.3826 132.802 31.6826 141.152 23.6326C147.802 17.2326 153.452 13.0826 159.052 10.4326C162.552 8.83261 168.002 7.43261 171.102 7.43261C174.602 7.43261 176.552 5.68261 174.902 4.03261C174.052 3.18261 106.952 3.18261 106.102 4.03261C105.252 4.88261 105.352 6.33261 106.402 6.83261C106.852 7.08261 109.852 7.43261 113.002 7.58261C118.852 7.83261 125.202 9.03261 127.552 10.2326C129.552 11.2326 131.902 14.2326 132.302 16.1826C133.202 21.0826 131.302 26.8826 126.702 32.8826C125.402 34.6326 120.802 39.8326 116.502 44.3826C105.852 55.6826 70.0519 90.6326 68.1019 91.6326C66.6019 92.4326 66.4519 92.3826 65.5019 91.4326C64.5019 90.4326 64.4519 90.1326 64.6019 52.0326C64.7019 22.6826 64.9019 13.4326 65.3519 12.5826C67.1519 9.48261 72.7019 8.03261 84.5019 7.63261C89.0519 7.48261 93.2519 7.28261 93.8519 7.13261C95.4519 6.83261 96.2019 5.23261 95.2019 4.23261C94.5019 3.53261 89.5519 3.43261 47.8519 3.48261C22.2019 3.48261 0.951852 3.63261 0.651852 3.78261Z" fill="#E61428"/>
<path d="M547.802 10.0326C547.402 10.6826 546.952 12.5326 546.752 14.1826C544.552 33.5326 537.902 47.4326 526.852 55.6826C522.802 58.7326 520.802 59.7326 514.552 61.8826C508.702 63.9326 507.552 64.9326 509.452 66.4826C510.502 67.3326 511.452 67.4326 518.452 67.4326C522.752 67.4326 526.752 67.5826 527.352 67.7326C529.602 68.3326 529.652 69.4826 528.952 92.0826C528.602 103.683 528.302 120.483 528.302 129.433C528.252 144.633 528.352 145.933 529.352 149.533C532.302 159.883 537.402 165.433 546.502 168.183C552.602 169.983 564.352 169.633 570.102 167.433C577.902 164.483 582.602 157.133 583.952 145.683C584.752 139.283 584.702 112.833 583.902 112.033C583.052 111.183 581.652 111.283 581.202 112.283C580.952 112.783 580.652 120.383 580.452 129.183C580.102 146.183 579.902 147.733 577.252 153.683C575.852 156.933 572.502 160.683 569.752 162.033C567.052 163.433 562.052 163.433 558.952 162.083C555.102 160.383 553.052 156.633 552.002 149.533C551.702 147.583 551.502 129.233 551.502 106.283V66.4326H565.702H579.852L581.202 65.1326C582.802 63.5326 582.902 61.4326 581.452 60.1326C580.502 59.2826 579.252 59.1826 566.902 58.9326C553.452 58.6826 553.402 58.6826 552.452 57.4826C551.552 56.3826 551.502 55.2326 551.502 33.9326C551.502 20.5826 551.302 10.9826 551.002 10.2326C550.402 8.58261 548.802 8.53261 547.802 10.0326Z" fill="#E61428"/>
<path d="M744.052 9.63263C743.752 10.0326 743.052 13.2826 742.502 16.8826C740.202 32.4826 736.052 42.4326 728.202 50.8826C722.552 56.9826 716.552 60.5326 707.652 62.8826C705.152 63.5826 704.202 64.8326 705.252 66.2326C705.852 67.0826 706.852 67.2326 715.002 67.4326C723.352 67.6826 724.152 67.7826 724.852 68.6826C725.702 69.7826 725.652 75.9326 724.452 116.183C724.152 126.333 724.052 137.033 724.202 139.933C724.952 152.383 728.602 160.433 735.702 165.033C740.002 167.783 744.152 168.983 751.002 169.283C764.452 169.933 772.952 165.983 777.052 157.233C779.802 151.383 780.102 148.733 780.352 130.533C780.502 121.383 780.452 113.333 780.302 112.633C779.952 111.333 778.452 110.983 777.602 112.033C777.352 112.433 777.002 118.883 776.852 127.683C776.502 144.883 776.102 147.883 772.952 154.333C769.552 161.283 764.552 164.183 758.002 162.933C754.152 162.183 751.852 160.533 750.352 157.333C747.802 151.883 747.752 151.233 747.752 107.433V66.6826L762.152 66.4326C776.602 66.1826 776.602 66.1826 777.552 64.9826C778.802 63.4326 778.752 61.3326 777.452 60.1326C776.502 59.2826 775.252 59.1826 762.952 58.9326C750.952 58.7326 749.452 58.5826 748.652 57.7826C747.802 56.9826 747.752 55.1826 747.602 33.5826C747.502 17.6326 747.302 10.0326 746.902 9.58263C746.202 8.73263 744.752 8.73263 744.052 9.63263Z" fill="#E61428"/>
<path d="M239.602 56.9826C229.202 58.1826 218.752 63.6826 210.452 72.2826C197.402 85.7826 191.052 103.683 192.552 122.583C194.252 143.583 206.702 160.183 225.502 166.433C237.452 170.383 251.002 170.333 260.952 166.383C272.052 161.933 280.752 153.033 284.702 141.933C287.402 134.383 288.252 127.883 286.602 126.983C285.152 126.183 283.352 127.383 282.952 129.433C281.102 138.233 280.202 141.333 278.252 145.283C272.102 157.783 262.102 163.983 248.002 164.033C236.152 164.083 229.402 160.183 224.952 150.733C221.452 143.233 220.002 134.633 220.002 120.783V112.933H253.002C292.002 112.933 288.202 113.683 287.752 106.283C285.852 78.0326 271.852 59.6326 250.152 56.9826C245.302 56.3826 244.852 56.3826 239.602 56.9826ZM249.652 60.2326C252.502 61.1826 256.452 64.6326 258.252 67.7326C261.502 73.2326 263.252 81.0826 264.002 93.2826C264.752 105.033 264.302 107.033 260.852 107.683C259.952 107.833 250.852 107.933 240.602 107.833L221.902 107.683L220.902 106.433C219.952 105.283 219.902 104.733 220.202 98.1826C221.302 74.2326 230.452 59.5326 244.302 59.4326C245.952 59.4326 248.352 59.7826 249.652 60.2326Z" fill="#E61428"/>
<path d="M451.602 56.9326C436.152 59.3326 424.852 71.4826 423.652 86.9326C422.752 98.7326 428.852 110.733 439.152 117.583C443.552 120.483 446.852 121.633 457.502 123.933C476.602 128.033 483.252 131.183 487.902 138.233C490.902 142.733 491.152 150.583 488.452 156.683C484.452 165.683 472.752 169.633 460.852 165.933C451.352 162.983 442.402 153.883 436.452 141.233C435.352 138.883 433.452 133.883 432.202 130.083C428.752 119.483 428.502 118.933 427.552 118.933C425.502 118.933 425.502 119.183 425.502 144.533C425.502 165.883 425.602 168.983 426.252 169.233C427.302 169.683 428.152 168.833 430.802 164.733C435.102 158.183 437.452 155.433 438.702 155.433C439.452 155.433 441.602 156.883 444.452 159.333C454.052 167.533 460.302 170.033 471.252 169.983C480.802 169.983 488.402 167.233 494.452 161.633C498.352 158.033 501.002 153.733 502.852 148.183C504.002 144.633 504.152 143.383 504.202 136.933C504.252 130.683 504.102 129.183 503.102 125.933C500.552 117.833 495.802 111.183 490.102 107.733C486.002 105.283 476.752 102.333 465.002 99.7326C453.802 97.2826 450.802 96.3326 446.002 93.9826C437.402 89.7326 433.602 83.3826 434.902 75.5826C436.602 65.5326 444.652 59.3326 456.252 59.2826C464.652 59.2326 470.402 61.8326 477.252 68.6826C484.052 75.4826 487.902 83.0826 490.802 95.3826C491.852 99.8826 492.252 100.933 493.002 100.933C494.952 100.933 494.802 102.283 495.952 68.9326C496.152 63.5826 496.102 58.7826 495.852 58.2826C495.102 56.6326 493.702 57.6326 489.452 62.9326C484.952 68.5326 483.752 69.2826 481.852 67.5326C478.052 64.1326 468.552 58.7826 464.252 57.6326C460.952 56.7326 454.902 56.3826 451.602 56.9326Z" fill="#E61428"/>
<path d="M641.502 56.9826C632.602 57.7826 623.552 60.4826 617.052 64.2826C613.052 66.6326 607.602 71.6826 605.452 74.9826C599.552 84.2326 601.652 97.2326 609.702 101.383C611.702 102.433 612.852 102.633 615.702 102.633C617.652 102.583 620.052 102.233 621.002 101.833C625.502 99.9326 628.452 95.6826 628.852 90.7326C629.452 83.7826 627.252 80.0826 620.602 76.4826C618.352 75.2826 616.452 73.9826 616.302 73.5826C614.952 70.0826 624.452 62.9326 633.502 60.6326C637.502 59.5826 645.302 59.4826 648.852 60.3826C651.902 61.1326 655.602 63.6326 657.252 66.0326C659.602 69.5326 660.002 72.1826 660.002 85.1826C660.002 98.5826 659.702 100.383 656.952 103.333C654.002 106.483 651.002 107.383 638.752 108.733C615.402 111.283 601.502 119.933 597.802 134.233C596.152 140.583 597.202 149.383 600.302 155.483C602.202 159.333 607.502 164.433 611.502 166.333C616.452 168.683 622.102 169.633 628.752 169.283C640.202 168.633 646.652 165.483 655.202 156.333C660.102 151.083 660.502 151.033 662.702 155.233C667.502 164.433 675.952 168.483 687.802 167.383C698.202 166.433 703.152 162.233 705.352 152.483C706.302 148.183 706.852 125.833 706.052 123.783C705.602 122.633 705.252 122.383 704.102 122.533L702.752 122.683L702.452 135.433C702.152 148.783 701.652 152.783 699.802 156.483C698.152 159.783 695.952 161.083 692.452 160.833C688.902 160.583 687.202 159.483 685.852 156.533C684.752 154.233 684.752 153.733 684.502 116.433C684.252 87.2826 684.052 78.2326 683.552 76.6826C679.902 65.5326 669.602 58.5326 654.502 56.9326C649.202 56.3826 647.652 56.3826 641.502 56.9826ZM659.552 109.283C659.902 110.183 660.002 116.033 659.852 125.933C659.652 142.733 659.602 142.983 656.202 149.433C649.402 162.433 635.602 168.233 628.102 161.233C625.902 159.183 624.802 157.333 623.502 153.433C622.002 148.983 621.552 137.333 622.652 132.083C624.252 124.733 627.152 119.333 631.652 115.583C634.752 112.983 636.752 112.283 645.752 110.683C649.602 110.033 653.652 109.133 654.752 108.733C657.852 107.583 658.952 107.733 659.552 109.283Z" fill="#E61428"/>
<path d="M914.352 56.9326C900.052 58.5826 885.252 67.8326 876.052 80.9326C861.602 101.533 862.052 129.983 877.102 149.983C887.152 163.333 901.302 170.033 918.002 169.283C925.502 168.933 930.652 167.733 936.302 164.933C948.902 158.733 956.252 148.033 958.802 132.033C959.702 126.183 959.602 123.483 958.402 122.733C956.952 121.833 956.552 122.883 956.002 128.333C954.902 139.783 951.052 148.483 944.102 155.033C938.202 160.533 932.802 162.833 924.502 163.283C911.802 163.933 903.502 159.483 898.602 149.433C894.152 140.383 892.502 130.433 892.502 113.333C892.502 107.433 892.702 100.433 893.002 97.8826C894.552 83.6326 898.302 73.4826 904.352 66.9326C909.602 61.2326 915.302 59.0826 923.652 59.5826C927.452 59.7826 928.602 60.0826 931.852 61.6826C938.902 65.1826 943.452 71.8326 940.652 74.6326C940.152 75.0826 938.302 76.4326 936.502 77.5826C932.002 80.4826 930.352 83.2826 930.102 88.2826C929.902 91.4326 930.052 92.3326 931.202 94.6326C936.352 105.183 949.802 104.633 955.352 93.6826C956.802 90.8826 957.502 85.8326 956.952 82.1826C955.352 71.7826 944.152 61.3826 930.952 57.9826C926.302 56.7826 919.502 56.3826 914.352 56.9326Z" fill="#E61428"/>
<path d="M823.002 59.9326C812.102 61.1826 802.102 61.9326 795.952 61.9326C793.102 61.9326 790.252 62.0826 789.652 62.2326C788.202 62.6326 787.802 63.8826 788.802 64.9826C789.552 65.7826 790.402 65.9326 794.752 65.9326C803.902 65.9326 807.902 67.2326 810.002 70.9826L811.252 73.1826V115.183C811.252 160.633 811.302 159.433 808.552 161.383C806.552 162.733 803.402 163.333 795.852 163.733C789.052 164.083 789.002 164.083 788.652 165.333C788.002 167.983 787.552 167.933 822.102 167.933C853.452 167.933 854.002 167.933 855.002 166.933C855.752 166.183 855.902 165.683 855.552 165.033C855.152 164.233 853.952 164.033 848.352 163.583C841.202 162.983 838.152 162.083 836.252 159.933C835.252 158.833 835.252 158.033 835.102 109.783C835.002 65.1826 834.902 60.6826 834.152 59.8326C833.202 58.7826 833.152 58.7826 823.002 59.9326Z" fill="#E61428"/>
<path d="M297.302 62.3826C296.552 63.2326 296.552 63.3326 297.352 64.2826C298.102 65.0826 299.352 65.3826 304.252 65.8826C314.302 66.8826 315.652 68.0826 320.002 79.0826C321.452 82.6826 323.402 87.6826 324.402 90.1826C327.902 99.1826 337.252 121.983 349.052 150.283C353.402 160.783 357.002 169.533 357.002 169.683C357.002 170.233 348.652 194.033 347.602 196.433C341.752 210.033 336.802 216.033 329.352 218.433C327.802 218.933 326.952 218.933 325.202 218.433C321.452 217.383 321.252 215.533 324.302 211.533C326.502 208.633 327.152 206.433 326.902 202.883C326.752 200.533 326.352 199.433 324.852 197.333C322.702 194.183 320.852 192.983 317.552 192.583C313.202 192.083 310.852 192.733 308.102 195.183C304.502 198.433 303.302 201.233 303.352 206.233C303.352 209.883 303.552 210.633 304.952 213.133C306.952 216.583 309.852 219.133 313.302 220.433C324.602 224.633 335.602 221.183 343.252 210.983C345.852 207.483 349.352 201.083 350.602 197.433C351.052 196.183 353.002 190.583 355.002 184.933C356.952 179.283 359.002 173.433 359.502 171.933C360.002 170.433 361.802 165.233 363.502 160.433C365.202 155.633 367.002 150.433 367.502 148.933C368.002 147.433 369.802 142.233 371.502 137.433C373.202 132.633 375.002 127.433 375.502 125.933C376.002 124.433 377.802 119.233 379.502 114.433C381.202 109.633 383.002 104.433 383.502 102.933C390.652 81.3326 395.502 71.4326 400.752 67.8826C402.702 66.5326 407.102 65.4326 410.402 65.4326C411.452 65.4326 412.152 65.0826 412.502 64.4826C413.152 63.2326 413.152 63.1326 412.202 62.2326C411.552 61.5326 409.002 61.4326 392.302 61.4326C372.552 61.4326 372.002 61.4826 372.002 63.4326C372.002 64.6326 373.702 65.2826 378.702 65.8826C387.952 66.9826 390.852 71.0826 388.552 79.7826C386.952 85.9326 384.552 93.0326 375.502 118.183C373.652 123.383 371.602 129.133 371.002 130.933C368.402 138.483 367.252 137.083 359.152 116.583C346.852 85.4826 342.502 73.5826 342.502 70.8326C342.502 68.9326 344.402 66.9826 346.752 66.4326C347.852 66.1826 351.002 65.8326 353.752 65.6326C356.502 65.4826 359.252 65.1326 359.902 64.8326C361.252 64.1326 361.352 62.6326 360.052 61.9326C359.402 61.6326 348.652 61.4326 328.602 61.4326C299.552 61.4326 298.102 61.4826 297.302 62.3826Z" fill="#E61428"/>
</svg>
